{"title":"The Girl Next Door Unrated 2004 BRRip H264 AAC-MS","uid":5653109,"size":1742366157,"categoryP":"video","categoryS":"hd___movies","magnet":"?xt=urn:btih:173915dedc67a9289af4f5eacb6b8edbccb770a4&amp;dn=The+Girl+Next+Door+Unrated+2004+BRRip+H264+AAC-MS&amp;tr=udp%3A%2F%2Ftracker.openbittorrent.com%3A80&amp;tr=udp%3A%2F%2Fopen.demonii.com%3A1337&amp;tr=udp%3A%2F%2Ftracker.coppersurfer.tk%3A6969&amp;tr=udp%3A%2F%2Fexodus.desync.com%3A6969","seeders":0,"leechers":1,"uploader":"rev-x","files":6,"time":1277703165,"description":"The Girl Next Door Unrated 2004 BRRip H264 AAC-MS.mp4\nFormat : MPEG-4\nFormat profile : Base Media\nCodec ID : isom\nFile size : 1.62 GiB\nDuration : 1h 49mn\nOverall bit rate : 2 123 Kbps\n\nVideo #1\nFormat : AVC\nFormat/Info : Advanced Video Codec\nFormat profile : &lt;a class=&quot;__cf_email__&quot; href=&quot;/cdn-cgi/l/email-protection&quot; data-cfemail=&quot;7b33121c133b374f554a&quot;&gt;[email&amp;#160;protected]&lt;/a&gt;&lt;script cf-hash='f9e31' type=&quot;text/javascript&quot;&gt;\n/* &lt;![CDATA[ */!function(){try{var t=&quot;currentScript&quot;in document?document.currentScript:function(){for(var t=document.getElementsByTagName(&quot;script&quot;),e=t.length;e--;)if(t[e].getAttribute(&quot;cf-hash&quot;))return t[e]}();if(t&amp;&amp;t.previousSibling){var e,r,n,i,c=t.previousSibling,a=c.getAttribute(&quot;data-cfemail&quot;);if(a){for(e=&quot;&quot;,r=parseInt(a.substr(0,2),16),n=2;a.length-n;n+=2)i=parseInt(a.substr(n,2),16)^r,e+=String.fromCharCode(i);e=document.createTextNode(e),c.parentNode.replaceChild(e,c)}}}catch(u){}}();/* ]]&gt; */&lt;/script&gt;\nFormat settings, CABAC : Yes\nFormat settings, ReFrames : 3 frames\nCodec ID : avc1\nCodec ID/Info : Advanced Video Coding\nDuration : 1h 49mn\nBit rate mode : Variable\nBit rate : 1 800 Kbps\nMaximum bit rate : 8 572 Kbps\nWidth : 1 280 pixels\nHeight : 544 pixels\nDisplay aspect ratio : 2.35\nFrame rate mode : Constant\nFrame rate : 24.000 fps\nResolution : 24 bits\nColorimetry : 4:2:0\nScan type : Progressive\nBits/(Pixel*Frame) : 0.108\nStream size : 1.37 GiB (85%)\nWriting library : x264 core 80 r1376M 3feaec2\n\nAudio #2\nFormat : AAC\nFormat/Info : Advanced Audio Codec\nFormat version : Version 4\nFormat profile : LC\nFormat settings, SBR : No\nCodec ID : 40\nDuration : 1h 49mn\nBit rate mode : Variable\nBit rate : 321 Kbps\nMaximum bit rate : 408 Kbps\nChannel(s) : 6 channels\nChannel positions : Front: L C R, Rear: L R, LFE\nSampling rate : 48.0 KHz\nResolution : 16 bits\nStream size : 251 MiB (15%)\n","torrent":{"xt":"urn:btih:173915dedc67a9289af4f5eacb6b8edbccb770a4","amp;dn":"The+Girl+Next+Door+Unrated+2004+BRRip+H264+AAC-MS","amp;tr":["udp%3A%2F%2Ftracker.openbittorrent.com%3A80","udp%3A%2F%2Fopen.demonii.com%3A1337","udp%3A%2F%2Ftracker.coppersurfer.tk%3A6969","udp%3A%2F%2Fexodus.desync.com%3A6969"],"infoHash":"173915dedc67a9289af4f5eacb6b8edbccb770a4","infoHashBuffer":{"type":"Buffer","data":[23,57,21,222,220,103,169,40,154,244,245,234,203,107,142,219,204,183,112,164]},"announce":[],"urlList":[]}}